# xmcd
#
# Track frame offsets: 
#        150
#        14176
#        27472
#        39451
#        53133
#        66806
#        78298
#        91037
#        100632
#        113692
#        127436
#        140467
#        152529
#        166764
#        181093
#        192168
#        204058
#        214591
#        226333
#        238245
#
# Disc length: 3320 seconds
#
# Revision: 0
# Processed by: cddbd v1.5.2PL0 Copyright (c) Steve Scherf et al.
# Submitted via: ExactAudioCopy v0.99pb5
#
DISCID=030cf614
DTITLE=Tex Ritter - The Essential Recordings\\CD 2
DYEAR=2014
DGENRE=Country
TTITLE0=The Letter Edged In Black
TTITLE1=Jealous Heart
TTITLE2=Double Dealin' Darlin'
TTITLE3=Fort Worth Jail
TTITLE4=There's A New Moon Over My Shoulder
TTITLE5=Have I Told You Lately That I Love You
TTITLE6=Love Me Now
TTITLE7=Boogie Woogie Cowboy
TTITLE8=You Will Have To Pay
TTITLE9=Deck Of Cards
TTITLE10=Pecos Bill
TTITLE11=Rock And Rye
TTITLE12=I Dreamed Of A Hillbilly Heaven
TTITLE13=Conversation With A Gun
TTITLE14=He's A Cowboy Auctioneer
TTITLE15=When It's Springtime In The Rockies
TTITLE16=Tennessee Blues
TTITLE17=I've Had Enough Of Your Two Timin'
TTITLE18=Never Mind My Tears
TTITLE19=I've Got Five Dollars And It's Saturday Night
EXTD=
EXTT0=
EXTT1=
EXTT2=
EXTT3=
EXTT4=
EXTT5=
EXTT6=
EXTT7=
EXTT8=
EXTT9=
EXTT10=
EXTT11=
EXTT12=
EXTT13=
EXTT14=
EXTT15=
EXTT16=
EXTT17=
EXTT18=
EXTT19=
PLAYORDER=
